<?xml version="1.0" encoding="UTF-8" standalone="no"?>
<!-- Generator: Adobe Illustrator 15.0.0, SVG Export Plug-In . SVG Version: 6.00 Build 0)  -->

<svg
   version="1.1"
   id="Ebene_1"
   x="0px"
   y="0px"
   width="196.43327"
   height="40.307339"
   viewBox="0 0 196.43328 40.307338"
   enable-background="new 0 0 170.079 56.693"
   xml:space="preserve"
   sodipodi:docname="saga-logo.svg"
   inkscape:export-filename="itpl-logo.svg"
   inkscape:export-xdpi="96"
   inkscape:export-ydpi="96"
   xmlns:inkscape="http://www.inkscape.org/namespaces/inkscape"
   xmlns:sodipodi="http://sodipodi.sourceforge.net/DTD/sodipodi-0.dtd"
   xmlns="http://www.w3.org/2000/svg"
   xmlns:svg="http://www.w3.org/2000/svg"><defs
   id="defs7" /><sodipodi:namedview
   id="namedview7"
   pagecolor="#ffffff"
   bordercolor="#000000"
   borderopacity="0.25"
   inkscape:showpageshadow="2"
   inkscape:pageopacity="0.0"
   inkscape:pagecheckerboard="0"
   inkscape:deskcolor="#d1d1d1"
   showgrid="false" />


<g
   id="Layer1008"
   transform="matrix(1.3333333,0,0,1.3333333,-50.096532,-1060.2117)"><path
     d="m 156.1742,820.6704 c -0.8865,0.1397 -1.8291,0.1033 -2.7901,-0.1358 -4.0985,-1.0199 -7.0216,-5.3506 -6.5071,-9.6404 0.1805,-1.5041 0.7607,-2.8082 1.6141,-3.8243 -0.5364,0.902 -0.9003,1.9517 -1.0397,3.1139 -0.5474,4.5637 2.5623,9.1707 6.9224,10.2557 0.61,0.1518 1.213,0.2266 1.8004,0.2309 z"
     style="fill:#808080;fill-rule:evenodd"
     id="path57" /><g
     id="Layer1009"
     style="fill:#666666"><g
       id="Layer1010"
       style="fill:#666666"><path
         d="m 37.7026,824.9134 -0.1302,-28.5958 h 3.9221 l 0.1301,28.5958 z m 9.7976,0 -0.0542,-11.9494 c -0.0103,-2.2566 0.7966,-4.1735 2.4207,-5.7503 1.6241,-1.5839 3.6191,-2.3723 5.9844,-2.3723 1.8828,0 3.6256,0.6118 5.2218,1.8351 2.1074,1.5769 3.1644,3.7792 3.1771,6.6069 l 0.053,11.63 h -3.6022 l -0.0529,-11.5482 c -0.0062,-1.3798 -0.4534,-2.5764 -1.3486,-3.5821 -0.8948,-1.0131 -2.0393,-1.5161 -3.4326,-1.5161 -1.3256,0 -2.4516,0.4759 -3.3784,1.4344 -0.9133,0.9584 -1.3638,2.0729 -1.358,3.3443 l 0.0542,11.8677 z m 22.4127,-6.1105 -0.0838,-18.4409 h 3.5414 l 0.0226,4.9754 h 7.0282 l 0.0156,3.426 h -7.0282 l 0.0489,10.7126 c 0.0024,0.5437 0.2221,1.0126 0.6656,1.3933 0.4098,0.4144 1.0496,0.6184 1.9128,0.6184 h 4.4592 l 0.0156,3.4257 h -4.5409 c -2.0935,0 -3.6597,-0.6115 -4.6847,-1.8352 -0.9091,-1.0603 -1.3641,-2.4877 -1.3723,-4.2753 z m 18.6942,-3.2289 9.7365,-5.3967 c -0.5737,-0.5642 -1.0377,-0.9449 -1.3987,-1.1285 -0.8381,-0.4689 -1.8927,-0.7001 -3.1706,-0.7001 -1.9645,0 -3.5311,0.7342 -4.6937,2.2093 -1.0545,1.3251 -1.5773,2.9632 -1.5682,4.9006 0.0078,1.6857 0.5716,3.1538 1.6922,4.3976 1.2295,1.3527 2.8232,2.0327 4.7878,2.0327 1.9781,0 3.4843,-0.5441 4.5195,-1.6315 0.9199,-0.9448 1.5794,-2.454 1.9707,-4.5203 l 3.6051,0.4964 c 0.01,2.1071 -0.8381,4.0716 -2.5427,5.8932 -2.036,2.1752 -4.6276,3.2626 -7.7883,3.2626 -2.6577,0 -4.9869,-0.965 -6.9872,-2.8889 -2.0003,-1.9235 -3.0031,-4.2346 -3.0154,-6.9264 -0.0156,-3.3985 1.0936,-6.0903 3.3279,-8.0819 1.9157,-1.7128 4.1414,-2.5694 6.6767,-2.5694 2.2228,0 4.1077,0.503 5.662,1.5161 1.5342,1.0332 2.8466,2.6031 3.9434,4.697 l -13.1871,7.3271 z m 20.6876,-19.2564 h 3.6026 l 0.1302,28.5958 h -3.6026 z m 10.5725,0 h 3.6026 l 0.1302,28.5958 h -3.6022 z m 11.409,4.52 c -0.002,-0.5708 0.2127,-1.0534 0.6529,-1.4546 0.4329,-0.4077 0.9351,-0.6184 1.5059,-0.6184 0.5441,0 1.041,0.2107 1.4779,0.6184 0.43,0.4012 0.6431,0.9178 0.646,1.5568 0.003,0.6455 -0.1848,1.1621 -0.5503,1.5293 -0.4127,0.4147 -0.9014,0.6184 -1.4722,0.6184 -0.5983,0 -1.1157,-0.2037 -1.5526,-0.6184 -0.4706,-0.3672 -0.7043,-0.9174 -0.7076,-1.6315 z m 0.4497,24.0758 -0.0891,-19.576 h 3.582 l 0.0891,19.576 z m 33.0973,-28.5958 h 3.5821 l 0.0837,18.4002 c 0.01,2.0052 0.6086,3.7045 1.7974,5.0978 1.1757,1.3798 2.7082,2.0733 4.6112,2.0733 2.0664,0 3.7011,-0.7547 4.8838,-2.2704 1.034,-1.312 1.5436,-2.8413 1.5358,-4.5812 -0.0102,-2.2298 -0.7046,-3.9426 -2.0762,-5.1388 -1.174,-1.0332 -2.59,-1.5498 -4.2486,-1.5498 -1.0331,0 -1.9842,0.163 -2.8457,0.4961 -0.5971,0.2106 -1.3433,0.6052 -2.2446,1.176 l -0.0169,-3.7455 c 0.7248,-0.4619 1.5321,-0.8085 2.4081,-1.0192 0.8352,-0.2246 1.6503,-0.3334 2.4454,-0.3334 2.8006,0 5.1565,0.8566 7.0606,2.5694 2.0541,1.822 3.0848,4.2009 3.0979,7.151 0.0136,2.9295 -0.8315,5.4037 -2.5353,7.4089 -1.8458,2.1752 -4.3286,3.2626 -7.4487,3.2626 -2.8819,0 -5.2653,-0.9991 -7.1572,-2.9978 -1.8853,-1.9982 -2.8343,-4.3976 -2.847,-7.1982 z"
         style="fill:#666666;fill-rule:evenodd"
         id="path59" /></g><path
       d="m 154.5465,805.388 c 1.4724,0.6195 2.7242,1.5469 3.7131,2.6763 -0.7762,-0.8069 -1.724,-1.4721 -2.8185,-1.9326 -4.3204,-1.8179 -9.3265,0.2231 -11.1444,4.5435 -1.8178,4.3203 0.2231,9.3265 4.5435,11.1443 4.3203,1.8179 9.3265,-0.2231 11.1444,-4.5435 0.7138,-1.6965 0.8323,-3.4993 0.4517,-5.1727 0.5933,2.1412 0.4995,4.4881 -0.4257,6.687 -2.1861,5.1956 -8.2068,7.6502 -13.4024,5.4641 -5.1956,-2.1862 -7.6501,-8.2068 -5.464,-13.4024 2.1861,-5.1956 8.2067,-7.6502 13.4023,-5.464 z"
       style="fill:#666666;fill-rule:evenodd"
       id="path60" /></g><path
     d="m 161.0623,810.1427 c -1.6256,2.2238 -4.7022,5.1067 -8.5257,7.8269 -6.4246,4.5715 -12.589,7.0009 -13.7226,5.4082 -0.5797,-0.814 0.2659,-2.5274 2.089,-4.6182 0.1173,0.352 0.1992,0.7471 0.4261,1.0993 0.1505,0.2335 0.3531,0.4242 0.6129,0.4855 1.5414,1.1374 7.4115,-1.2716 13.5171,-5.6159 1.3268,-0.9439 2.5622,-1.9087 3.6799,-2.857 l -1.6095,-0.0921 c 0.9309,-0.106 2.8056,-1.187 3.6362,-1.7689 -0.0443,0.0539 -0.0893,0.108 -0.1341,0.1618 0.01,-0.01 0.0197,-0.02 0.0307,-0.0296 z"
     style="fill:#ffffff;fill-rule:evenodd"
     id="path61" /><path
     d="m 160.7088,809.4358 c -1.6255,2.2238 -4.7022,5.1067 -8.5256,7.8269 -6.4246,4.5715 -12.5891,7.0009 -13.7227,5.4082 -0.5797,-0.814 0.266,-2.5274 2.089,-4.6182 0.1173,0.352 0.1993,0.7471 0.4262,1.0993 2.123,3.2951 12.8322,-4.2071 14.1299,-5.1304 1.3268,-0.9439 2.5622,-1.9087 3.68,-2.857 l -2.4064,-0.0921 c 0.9309,-0.106 3.5912,-1.2035 4.4331,-1.7689 0.0579,-0.0389 -0.0894,0.108 -0.1342,0.1618 0.01,-0.01 0.0198,-0.02 0.0307,-0.0296 z"
     style="fill:#c3d40a;fill-rule:evenodd"
     id="path62" /></g><text
   xml:space="preserve"
   style="font-style:normal;font-variant:normal;font-weight:bold;font-stretch:normal;font-size:13.3333px;font-family:Arial;-inkscape-font-specification:'Arial, Bold';font-variant-ligatures:normal;font-variant-caps:normal;font-variant-numeric:normal;font-variant-east-asian:normal;fill:#000000;stroke-width:0.999999"
   x="185.08138"
   y="9.7395592"
   id="text2"><tspan
     sodipodi:role="line"
     id="tspan2"
     x="185.08138"
     y="9.7395592"
     style="font-style:normal;font-variant:normal;font-weight:bold;font-stretch:normal;font-size:13.3333px;font-family:Arial;-inkscape-font-specification:'Arial, Bold';font-variant-ligatures:normal;font-variant-caps:normal;font-variant-numeric:normal;font-variant-east-asian:normal;stroke-width:0.999999">®</tspan></text></svg>
